<svg width="30" height="25" viewBox="0 0 30 25" fill="none" xmlns="http://www.w3.org/2000/svg">
<path fill-rule="evenodd" clip-rule="evenodd" d="M22.9805 24.724C23.383 25.009 23.9017 25.0802 24.3642 24.9052C24.8267 24.729 25.1667 24.334 25.2692 23.8552C26.3555 18.7502 28.9905 5.82894 29.9792 1.18519C30.0542 0.835186 29.9292 0.471436 29.6542 0.237686C29.3792 0.00393536 28.998 -0.0635648 28.658 0.0626853C23.4167 2.00269 7.2755 8.05894 0.677997 10.5002C0.259247 10.6552 -0.0132527 11.0577 0.000497317 11.4989C0.0154973 11.9414 0.312997 12.3252 0.741747 12.4539C3.7005 13.339 7.58425 14.5702 7.58425 14.5702C7.58425 14.5702 9.39925 20.0515 10.3455 22.839C10.4642 23.189 10.738 23.464 11.0992 23.559C11.4592 23.6527 11.8442 23.554 12.113 23.3002C13.633 21.8652 15.983 19.6465 15.983 19.6465C15.983 19.6465 20.448 22.9202 22.9805 24.724ZM9.218 13.8777L11.3167 20.8002L11.783 16.4165C11.783 16.4165 19.8917 9.1027 24.5142 4.93394C24.6492 4.81144 24.668 4.60644 24.5555 4.46269C24.4442 4.31894 24.2392 4.28519 24.0855 4.38269C18.728 7.80394 9.218 13.8777 9.218 13.8777Z" fill="#1D1D1F"/>
</svg>
