<svg width="30" height="30" viewBox="0 0 30 30" fill="none" xmlns="http://www.w3.org/2000/svg">
<g clip-path="url(#clip0_176_527)">
<path fill-rule="evenodd" clip-rule="evenodd" d="M22.9805 29.724C23.383 30.009 23.9017 30.0802 24.3642 29.9052C24.8267 29.729 25.1667 29.334 25.2692 28.8552C26.3555 23.7502 28.9905 10.8289 29.9792 6.18519C30.0542 5.83519 29.9292 5.47144 29.6542 5.23769C29.3792 5.00394 28.998 4.93644 28.658 5.06269C23.4167 7.00269 7.2755 13.0589 0.677997 15.5002C0.259247 15.6552 -0.0132527 16.0577 0.000497317 16.4989C0.0154973 16.9414 0.312997 17.3252 0.741747 17.4539C3.7005 18.339 7.58425 19.5702 7.58425 19.5702C7.58425 19.5702 9.39925 25.0515 10.3455 27.839C10.4642 28.189 10.738 28.464 11.0992 28.559C11.4592 28.6527 11.8442 28.554 12.113 28.3002C13.633 26.8652 15.983 24.6465 15.983 24.6465C15.983 24.6465 20.448 27.9202 22.9805 29.724ZM9.218 18.8777L11.3167 25.8002L11.783 21.4165C11.783 21.4165 19.8917 14.1027 24.5142 9.93394C24.6492 9.81144 24.668 9.60644 24.5555 9.46269C24.4442 9.31894 24.2392 9.28519 24.0855 9.38269C18.728 12.8039 9.218 18.8777 9.218 18.8777Z" fill="black"/>
</g>
<defs>
<clipPath id="clip0_176_527">
<rect width="30" height="29.988" fill="white"/>
</clipPath>
</defs>
</svg>
