<svg width="30" height="34" viewBox="0 0 30 34" fill="none" xmlns="http://www.w3.org/2000/svg">
<path d="M10.6676 0.043836C9.87466 0.117406 8.73842 0.362637 7.9782 0.616043C6.17984 1.21277 4.84741 2.04656 3.42507 3.46073C2.00272 4.88307 1.13624 6.25637 0.53951 8.05474C0.00817439 9.63239 0 9.75501 0 14.2509C0 17.8885 0.0163488 18.4117 0.147139 19.0084C0.907357 22.4498 3.04087 25.3844 5.9673 26.9784L6.62125 27.3381L6.6376 30.2727C6.66213 33.1583 6.66213 33.2155 6.83379 33.3545C7.23433 33.6896 7.28338 33.6569 9.97275 30.9757L12.5068 28.4417L16.3079 28.409C19.7984 28.3763 20.1662 28.3599 20.8038 28.2128C24.9973 27.191 28.1771 24.3054 29.4932 20.3408C29.9918 18.8368 30 18.6978 30 14.2509C30 10.6133 29.9837 10.0902 29.8529 9.46891C29.3706 7.2046 28.3569 5.28362 26.7793 3.64874C24.8011 1.58062 22.3815 0.38716 19.5613 0.0765336C18.842 -0.0052103 11.4196 -0.0297335 10.6676 0.043836ZM18.0899 4.77681C21.6703 5.5125 24.3188 8.74138 24.3188 12.3708C24.3188 13.0329 24.2207 13.9403 24.1063 14.3163C24.0409 14.537 23.6322 14.7169 23.3869 14.6188C23.0518 14.4962 22.9864 14.2754 23.1008 13.6378C23.158 13.3027 23.1826 12.706 23.158 12.1174C23.0845 10.4662 22.5041 9.08471 21.3924 7.89942C20.0845 6.51795 18.6294 5.864 16.6104 5.74138C15.891 5.69234 15.6785 5.65147 15.5559 5.52885C15.3597 5.33266 15.3678 5.12831 15.5804 4.85855C15.7439 4.65419 15.7766 4.64602 16.6022 4.64602C17.0763 4.64602 17.7466 4.70324 18.0899 4.77681ZM9.88283 6.64874C10.2098 6.80405 12.8747 9.48525 13.0627 9.8531C13.5286 10.7523 13.1608 11.725 12.188 12.1665C11.3624 12.5343 10.921 13.1964 11.0272 13.9076C11.2807 15.5261 13.4305 17.9539 15.2044 18.616C16.2098 18.9921 17.0518 18.6814 17.5259 17.7414C17.7875 17.2264 18.1144 16.8831 18.4578 16.7523C18.7766 16.6297 19.4469 16.6378 19.7657 16.7768C20.0518 16.8912 22.7575 19.6133 23.0191 20.0384C23.2234 20.3817 23.2234 21.0847 23.0191 21.5261C22.8229 21.9512 20.9673 23.7741 20.4768 24.0193C19.4959 24.5261 17.7221 24.24 15.7929 23.2754C15.1471 22.9485 13.4142 21.8041 12.6703 21.1992C9.3188 18.5098 6.52316 14.6596 5.83651 11.7904C5.59128 10.7359 5.63215 9.68144 5.95913 9.08471C6.26975 8.5125 8.16621 6.64874 8.55041 6.5343C8.90191 6.42803 9.52316 6.47708 9.88283 6.64874ZM17.8937 7.01659C18.8828 7.26999 19.594 7.68689 20.4033 8.48798C21.5068 9.58335 22.03 10.8013 22.0381 12.2972C22.0463 12.7223 22.0054 13.1229 21.9482 13.2209C21.8093 13.4907 21.4986 13.5806 21.2125 13.4335C20.9183 13.2863 20.861 13.0983 20.9264 12.5506C20.9918 11.9948 20.7956 11.0547 20.4768 10.4008C20.1662 9.76318 19.4305 8.97844 18.8011 8.61059C18.0654 8.16918 17.3787 7.98934 16.4877 7.98934C15.6213 7.98117 15.4087 7.8749 15.4087 7.42531C15.4087 6.98389 15.6621 6.8531 16.5123 6.8531C16.9946 6.8531 17.4932 6.91032 17.8937 7.01659ZM17.9673 9.46073C18.9973 9.95937 19.7248 11.0139 19.8065 12.0847C19.8392 12.567 19.8229 12.6569 19.6676 12.8122C19.2834 13.1964 18.8174 12.8858 18.7357 12.191C18.6703 11.6351 18.4496 11.21 18 10.8013C17.6322 10.458 17.0109 10.2046 16.545 10.2046C16.3978 10.2046 16.2589 10.131 16.1526 9.99207C15.9401 9.71414 15.9401 9.62422 16.1608 9.34629C16.3243 9.13376 16.3569 9.12558 16.8965 9.15828C17.297 9.19098 17.5995 9.27272 17.9673 9.46073Z" fill="black"/>
</svg>
