<svg width="30" height="33" viewBox="0 0 30 33" fill="none" xmlns="http://www.w3.org/2000/svg">
<path d="M14.59 0.000728897C13.6163 0.00633375 12.6397 0.0651807 11.6548 0.185678C9.77146 0.418264 7.90485 0.804974 6.11357 1.63164C3.26483 2.94589 1.24476 5.17648 0.658825 8.41868C0.410502 9.78618 0.209611 11.1733 0.0952153 12.5688C-0.125207 15.2786 0.0115104 17.9968 0.776012 20.6673C1.37868 22.7718 2.48916 24.6633 4.4339 25.8907C5.25699 26.4091 6.34236 26.6613 6.90876 26.9247C7.0678 27.0004 7.10686 27.0452 7.11524 27.0564C7.1236 27.0648 7.14593 27.0845 7.14314 27.2526C7.1236 28.9676 7.14314 32.2854 7.14314 32.2854L7.14593 33H8.42103L8.6275 32.7982C8.6275 32.7982 11.8669 29.6681 13.0387 28.3791C13.2508 28.1493 13.3596 28.0204 13.3819 28.0064C13.4014 27.9924 13.368 27.984 13.5856 27.9784C15.123 27.9475 16.6576 27.8887 18.1921 27.8046C20.215 27.6925 22.2769 27.4992 24.2607 26.6669C25.9878 25.9411 27.4303 24.7558 28.3036 22.9792C29.1965 21.1577 29.6736 19.227 29.8522 17.2289C30.1479 13.9027 30.0447 10.5708 29.1295 7.28657C28.591 5.36143 27.5084 3.73332 25.8483 2.5844C23.8617 1.2113 21.6212 0.695686 19.4282 0.367824C18.1475 0.177271 16.8584 0.0511697 15.5638 0.0119379C15.2402 0.00353097 14.9165 -0.00207317 14.59 0.000728897ZM15.5247 1.44669C16.7552 1.48032 17.9857 1.60081 19.2189 1.78576C21.3338 2.10242 23.3288 2.5844 25.0392 3.76695C26.4259 4.72532 27.2908 6.01996 27.754 7.67048C28.6078 10.7417 28.7166 13.8887 28.4292 17.1028C28.2646 18.9551 27.8265 20.7009 27.0202 22.3459C26.3087 23.7974 25.1982 24.7194 23.7083 25.3443C21.9784 26.07 20.0978 26.2634 18.1168 26.3727C16.599 26.4567 15.0783 26.5128 13.5577 26.5436C13.1754 26.552 12.8016 26.6529 12.5365 26.8491C12.2714 27.0452 12.1515 27.2274 11.9868 27.4067C11.1498 28.3258 9.48128 29.9427 8.57169 30.8283C8.56611 29.7578 8.55774 28.4632 8.57169 27.2694C8.57727 26.9023 8.49357 26.5268 8.28431 26.2298C8.07505 25.9327 7.78766 25.7534 7.51144 25.6245C6.70508 25.249 5.6504 24.9632 5.19282 24.6745C3.59406 23.6657 2.68727 22.1525 2.14877 20.2694C1.44286 17.8062 1.30893 15.2702 1.51819 12.6893C1.6298 11.3498 1.82232 10.0076 2.06506 8.67649C2.57287 5.87144 4.16884 4.10602 6.70787 2.93468C8.31221 2.19489 10.0254 1.8306 11.8306 1.60922C13.061 1.4579 14.2915 1.41026 15.5247 1.44669ZM15.8261 5.02236C15.2374 5.02236 14.6654 5.08961 14.1101 5.21291C13.7279 5.30258 13.4851 5.68649 13.5716 6.0732C13.6581 6.45991 14.0432 6.7009 14.4282 6.61403C14.8774 6.51035 15.3462 6.45711 15.8261 6.45711C19.3138 6.45711 22.1262 9.28177 22.1262 12.7818C22.1262 13.2666 22.0732 13.7373 21.97 14.1913C21.8835 14.5752 22.1235 14.9619 22.5085 15.0488C22.8935 15.1357 23.2758 14.8919 23.3623 14.5052C23.4878 13.9503 23.5548 13.3759 23.5548 12.7818C23.5548 8.50555 20.0866 5.02236 15.8261 5.02236ZM8.70004 6.45991C8.58285 6.45431 8.46288 6.46271 8.33732 6.49073C7.0399 6.77937 5.75085 7.72372 5.71458 9.41068C5.75085 9.64607 5.74806 9.89827 5.83456 10.1112C6.25866 11.1537 6.62696 12.2297 7.15709 13.2161C9.73798 18.008 13.6414 21.3398 18.6162 23.4555C19.2105 23.7077 19.8244 23.761 20.4243 23.5088C21.2501 23.1641 21.9505 22.6317 22.4164 21.8667C23.0554 20.8158 23.0637 20.0872 22.0118 19.311C21.3227 18.801 20.6447 18.277 19.9471 17.7782C18.8841 17.0216 17.7345 16.8899 16.9421 18.2181C16.9003 18.2854 16.8389 18.3414 16.7859 18.3975C16.3785 18.8318 15.8791 18.9383 15.349 18.7197C13.3373 17.8875 11.7832 16.5452 10.8457 14.5472C10.2932 13.3731 10.4439 12.7846 11.4762 12.0028C11.5795 11.9271 11.6771 11.8458 11.772 11.759C12.224 11.3442 12.344 10.851 12.0761 10.2934C11.4707 9.02116 10.6643 7.88625 9.64311 6.90827C9.36689 6.64486 9.0516 6.47953 8.70004 6.45991ZM15.8149 7.17448C15.4996 7.17448 15.1871 7.1997 14.8802 7.25295C14.6207 7.28657 14.4003 7.46031 14.3055 7.70411C14.2106 7.95071 14.258 8.22813 14.4254 8.42989C14.5956 8.62885 14.8635 8.72132 15.1202 8.66528C15.3434 8.62885 15.5778 8.60923 15.8149 8.60923C18.1363 8.60923 20.0002 10.4811 20.0002 12.8126C20.0002 13.0508 19.9806 13.2862 19.9443 13.5104C19.8885 13.7682 19.9806 14.0372 20.1787 14.2081C20.3796 14.3763 20.6558 14.4239 20.9014 14.3286C21.1441 14.2333 21.3171 14.012 21.3506 13.7514C21.4036 13.4431 21.4287 13.1293 21.4287 12.8126C21.4287 9.70772 18.9064 7.17448 15.8149 7.17448ZM15.7145 9.32661C15.4578 9.32381 15.2178 9.45831 15.0867 9.6825C14.9583 9.90668 14.9583 10.1813 15.0867 10.4055C15.2178 10.6297 15.4578 10.7642 15.7145 10.7614C16.9059 10.7614 17.8573 11.7169 17.8573 12.9135C17.8545 13.1713 17.9885 13.4123 18.2117 13.544C18.4349 13.6729 18.7083 13.6729 18.9315 13.544C19.1547 13.4123 19.2887 13.1713 19.2859 12.9135C19.2859 10.9407 17.6787 9.32661 15.7145 9.32661Z" fill="black"/>
</svg>
