<svg width="30" height="17" viewBox="0 0 30 17" fill="none" xmlns="http://www.w3.org/2000/svg">
<path d="M12.5708 0.0096817C12.0019 0.0505886 11.2747 0.161621 10.9873 0.249279C10.4888 0.401218 9.87294 0.950539 9.98438 1.13754C10.0078 1.16676 10.1193 1.21351 10.2424 1.23689C10.782 1.33623 11.2336 1.64011 11.4389 2.03749C11.7849 2.71538 11.9433 4.84254 11.7556 6.3444C11.6324 7.33786 11.5797 7.56577 11.392 7.92809C10.9052 8.89816 9.77323 8.11509 8.52985 5.94118C8.08411 5.16979 6.84073 2.692 6.56507 2.03165C6.2249 1.23104 6.11933 1.08495 5.7381 0.892101L5.41553 0.728474L2.98155 0.746006C0.782165 0.763536 0.529969 0.775225 0.359884 0.868727C0.0842281 1.01482 -0.0330722 1.21936 0.00798294 1.48233C0.043173 1.76283 0.963981 3.80818 1.64432 5.1172C2.96982 7.66511 4.0959 9.51761 5.29236 11.1364C7.05773 13.5148 7.83778 14.2862 9.63834 15.4316C10.477 15.9692 11.087 16.2672 11.8377 16.5185C12.87 16.8633 13.3157 16.9276 14.8582 16.9627C16.389 16.9977 16.8288 16.951 17.1573 16.7289C17.4212 16.5477 17.5033 16.2965 17.5561 15.5192C17.603 14.7478 17.7555 14.0875 17.9608 13.7369C18.1485 13.4271 18.5414 13.0648 18.7174 13.059C19.3097 13.0298 19.6441 13.2752 20.8874 14.666C22.0546 15.9692 22.4827 16.3491 23.1279 16.6588C23.4211 16.7932 23.773 16.9334 23.9197 16.9685C24.2716 17.0503 29.0222 16.9568 29.3272 16.8692C29.6322 16.7757 29.9606 16.4542 29.9665 16.2439C29.9899 15.6653 29.902 15.4024 29.4973 14.7888C28.9577 13.9823 28.5002 13.468 26.9343 11.9253C25.2686 10.2832 25.1572 10.1312 25.1513 9.58189C25.1513 9.12023 25.3683 8.7696 26.8287 6.84113C28.8873 4.12374 29.7084 2.80888 29.9372 1.88555C30.0721 1.34208 29.9958 1.0791 29.6498 0.892101L29.4034 0.763536L26.4416 0.781069C24.3478 0.798599 23.4387 0.821976 23.3332 0.868727C23.1337 0.962227 22.9285 1.30701 22.6645 1.96152C21.9607 3.70883 20.5121 6.22753 19.5561 7.36123C19.1749 7.81121 18.5825 8.27287 18.3889 8.27287C18.1133 8.27287 17.8846 8.09756 17.7145 7.74693L17.5561 7.42552L17.5737 4.39256C17.5913 1.12585 17.5796 1.03235 17.2805 0.599909C16.9813 0.179153 16.2541 0.0330563 14.301 0.00383759C13.5092 -0.00200653 12.7351 -0.00200653 12.5708 0.0096817Z" fill="#1D1D1F"/>
</svg>
