<svg width="30" height="30" viewBox="0 0 30 30" fill="none" xmlns="http://www.w3.org/2000/svg">
<path d="M15.019 0C6.76004 0 0.0366914 6.71756 0.0336914 14.9766C0.0321914 17.6166 0.723668 20.1938 2.03467 22.4648L0.00146484 30L7.8501 28.1455C10.0386 29.3395 12.5023 29.9663 15.0103 29.9678H15.0161C23.2736 29.9678 29.994 23.2487 29.9985 14.9912C30.0015 10.9877 28.4447 7.2236 25.6157 4.3916C22.7867 1.5611 19.027 0.0015 15.019 0ZM15.0161 3C18.2201 3.0015 21.2311 4.2507 23.4946 6.5127C25.7581 8.7777 27.0015 11.7873 26.9985 14.9883C26.9955 21.5943 21.6222 26.9678 15.0132 26.9678C13.0137 26.9663 11.0331 26.4642 9.28857 25.5117L8.27783 24.9609L7.16162 25.2246L4.2085 25.9219L4.9292 23.2441L5.25439 22.043L4.6333 20.9648C3.5863 19.1528 3.03219 17.0811 3.03369 14.9766C3.03669 8.37356 8.41161 3 15.0161 3ZM9.71631 8.0625C9.46581 8.0625 9.06079 8.15625 8.71729 8.53125C8.37379 8.90475 7.40479 9.80937 7.40479 11.6514C7.40479 13.4934 8.74658 15.2739 8.93408 15.5244C9.12008 15.7734 11.5241 19.6729 15.3296 21.1729C18.4916 22.4194 19.1338 22.1734 19.8208 22.1104C20.5078 22.0489 22.0371 21.2065 22.3491 20.332C22.6611 19.4575 22.6618 18.7053 22.5688 18.5508C22.4758 18.3948 22.2261 18.3018 21.8511 18.1143C21.4776 17.9268 19.637 17.0229 19.2935 16.8984C18.95 16.7739 18.6987 16.7109 18.4497 17.0859C18.2007 17.4609 17.4851 18.3018 17.2661 18.5508C17.0471 18.8013 16.8296 18.835 16.4546 18.6475C16.0796 18.4585 14.8739 18.0621 13.4429 16.7871C12.3299 15.7956 11.5789 14.5723 11.3599 14.1973C11.1424 13.8238 11.3394 13.6186 11.5269 13.4326C11.6949 13.2646 11.8989 12.9954 12.0864 12.7764C12.2724 12.5574 12.3369 12.4013 12.4614 12.1523C12.5859 11.9033 12.5222 11.6836 12.4292 11.4961C12.3362 11.3086 11.6079 9.45975 11.2749 8.71875C10.9944 8.09625 10.6982 8.08179 10.4312 8.07129C10.2137 8.06229 9.96531 8.0625 9.71631 8.0625Z" fill="black"/>
</svg>
