<svg width="30" height="31" viewBox="0 0 30 31" fill="none" xmlns="http://www.w3.org/2000/svg">
<path d="M14.2969 0.559875C12.4453 0.753235 10.8574 1.21027 9.25781 2.00128C4.92773 4.15167 2.00391 8.25909 1.37695 13.0696C1.27148 13.8724 1.25391 15.5423 1.3418 16.386C1.51758 18.0443 2.04492 19.8372 2.80664 21.3489L3.04102 21.8177L1.79297 25.3802C1.10742 27.3431 0.421875 29.2943 0.275391 29.722L0.00585938 30.4954L0.779297 30.2259C1.20703 30.0794 3.1582 29.3939 5.12109 28.7083L8.68359 27.4603L9.15234 27.6946C10.6641 28.4564 12.457 28.9837 14.1152 29.1595C14.959 29.2474 16.6289 29.2298 17.4316 29.1243C21.6152 28.5794 25.2773 26.306 27.6094 22.7962C29.2559 20.3177 30.0937 17.3411 29.9766 14.3587C29.8359 10.6673 28.3769 7.31573 25.7812 4.72003C23.584 2.51691 20.8184 1.12823 17.6953 0.647766C16.9687 0.536438 15.0059 0.489563 14.2969 0.559875ZM11.2676 7.59698C11.3379 7.63214 11.9297 8.19464 12.5859 8.84503C14.2148 10.4622 14.2148 10.4505 13.0605 11.6107L12.3516 12.3255L12.6855 12.929C13.3008 14.0364 13.793 14.6985 14.6777 15.6068C15.5742 16.5325 16.4121 17.1712 17.5723 17.8157L18.1758 18.1497L18.8906 17.4407C20.0508 16.2864 20.0391 16.2864 21.6562 17.9153C22.3066 18.5716 22.8691 19.1634 22.9043 19.2337C22.9922 19.4095 22.9863 19.8138 22.8867 20.0013C22.8398 20.0892 22.3594 20.5931 21.8144 21.1263C20.7656 22.1517 20.625 22.2454 19.9687 22.3333C19.2891 22.4271 17.9883 22.0755 16.8281 21.4778C15.2812 20.6927 13.998 19.7142 12.3926 18.1087C10.7871 16.5091 9.80859 15.2142 9.02929 13.6849C8.23242 12.1204 7.98633 10.8782 8.29687 9.96417C8.38476 9.71808 8.55469 9.513 9.33984 8.71027C9.86133 8.18292 10.3652 7.70245 10.459 7.64386C10.6582 7.52081 11.0684 7.49738 11.2676 7.59698Z" fill="#1D1D1F"/>
</svg>
