<svg width="19" height="14" viewBox="0 0 19 14" fill="none" xmlns="http://www.w3.org/2000/svg">
<path d="M13.5332 7.98874C14.7164 8.80249 15.5454 9.90499 15.5454 11.375V14H19V11.375C19 9.46749 15.9168 8.33874 13.5332 7.98874Z" fill="#1D1D1F"/>
<path d="M12.0909 7C13.9995 7 15.5454 5.43375 15.5454 3.5C15.5454 1.56625 13.9995 0 12.0909 0C11.685 0 11.305 0.0874998 10.9423 0.21C11.6591 1.11125 12.0909 2.2575 12.0909 3.5C12.0909 4.7425 11.6591 5.88875 10.9423 6.79C11.305 6.9125 11.685 7 12.0909 7Z" fill="#1D1D1F"/>
<path d="M6.90907 7C8.81771 7 10.3636 5.43375 10.3636 3.5C10.3636 1.56625 8.81771 0 6.90907 0C5.00044 0 3.45453 1.56625 3.45453 3.5C3.45453 5.43375 5.00044 7 6.90907 7ZM6.90907 1.75C7.85907 1.75 8.63635 2.5375 8.63635 3.5C8.63635 4.4625 7.85907 5.25 6.90907 5.25C5.95907 5.25 5.1818 4.4625 5.1818 3.5C5.1818 2.5375 5.95907 1.75 6.90907 1.75Z" fill="#1D1D1F"/>
<path d="M6.90909 7.875C4.60318 7.875 0 9.0475 0 11.375V14H13.8182V11.375C13.8182 9.0475 9.215 7.875 6.90909 7.875ZM12.0909 12.25H1.72727V11.3838C1.9 10.7538 4.57727 9.625 6.90909 9.625C9.24091 9.625 11.9182 10.7538 12.0909 11.375V12.25Z" fill="#1D1D1F"/>
</svg>
