<svg width="19" height="20" viewBox="0 0 19 20" fill="none" xmlns="http://www.w3.org/2000/svg">
<path d="M4.22222 14H11.6111V16H4.22222V14ZM4.22222 10H14.7778V12H4.22222V10ZM4.22222 6H14.7778V8H4.22222V6ZM16.8889 2H12.4767C12.0333 0.84 10.8722 0 9.5 0C8.12778 0 6.96667 0.84 6.52333 2H2.11111C1.96333 2 1.82611 2.01 1.68889 2.04C1.27722 2.12 0.907778 2.32 0.622778 2.59C0.432778 2.77 0.274445 2.99 0.168889 3.23C0.0633334 3.46 0 3.72 0 4V18C0 18.27 0.0633334 18.54 0.168889 18.78C0.274445 19.02 0.432778 19.23 0.622778 19.42C0.907778 19.69 1.27722 19.89 1.68889 19.97C1.82611 19.99 1.96333 20 2.11111 20H16.8889C18.05 20 19 19.1 19 18V4C19 2.9 18.05 2 16.8889 2ZM9.5 1.75C9.93278 1.75 10.2917 2.09 10.2917 2.5C10.2917 2.91 9.93278 3.25 9.5 3.25C9.06722 3.25 8.70833 2.91 8.70833 2.5C8.70833 2.09 9.06722 1.75 9.5 1.75ZM16.8889 18H2.11111V4H16.8889V18Z" fill="#1D1D1F"/>
</svg>
