<svg width="19" height="6" viewBox="0 0 19 6" fill="none" xmlns="http://www.w3.org/2000/svg">
<path d="M2.375 0.5C1.06875 0.5 0 1.625 0 3C0 4.375 1.06875 5.5 2.375 5.5C3.68125 5.5 4.75 4.375 4.75 3C4.75 1.625 3.68125 0.5 2.375 0.5ZM16.625 0.5C15.3188 0.5 14.25 1.625 14.25 3C14.25 4.375 15.3188 5.5 16.625 5.5C17.9312 5.5 19 4.375 19 3C19 1.625 17.9312 0.5 16.625 0.5ZM9.5 0.5C8.19375 0.5 7.125 1.625 7.125 3C7.125 4.375 8.19375 5.5 9.5 5.5C10.8062 5.5 11.875 4.375 11.875 3C11.875 1.625 10.8062 0.5 9.5 0.5Z" fill="#1D1D1F"/>
</svg>
