<svg width="36" height="37" viewBox="0 0 36 37" fill="none" xmlns="http://www.w3.org/2000/svg">
<path d="M17.982 0.5C8.046 0.5 0 8.564 0 18.5C0 28.436 8.046 36.5 17.982 36.5C27.936 36.5 36 28.436 36 18.5C36 8.564 27.936 0.5 17.982 0.5ZM30.456 11.3H25.146C24.57 9.05 23.742 6.89 22.662 4.892C25.974 6.026 28.728 8.33 30.456 11.3ZM18 4.172C19.494 6.332 20.664 8.726 21.438 11.3H14.562C15.336 8.726 16.506 6.332 18 4.172ZM4.068 22.1C3.78 20.948 3.6 19.742 3.6 18.5C3.6 17.258 3.78 16.052 4.068 14.9H10.152C10.008 16.088 9.9 17.276 9.9 18.5C9.9 19.724 10.008 20.912 10.152 22.1H4.068ZM5.544 25.7H10.854C11.43 27.95 12.258 30.11 13.338 32.108C10.026 30.974 7.272 28.688 5.544 25.7V25.7ZM10.854 11.3H5.544C7.272 8.312 10.026 6.026 13.338 4.892C12.258 6.89 11.43 9.05 10.854 11.3V11.3ZM18 32.828C16.506 30.668 15.336 28.274 14.562 25.7H21.438C20.664 28.274 19.494 30.668 18 32.828ZM22.212 22.1H13.788C13.626 20.912 13.5 19.724 13.5 18.5C13.5 17.276 13.626 16.07 13.788 14.9H22.212C22.374 16.07 22.5 17.276 22.5 18.5C22.5 19.724 22.374 20.912 22.212 22.1ZM22.662 32.108C23.742 30.11 24.57 27.95 25.146 25.7H30.456C28.728 28.67 25.974 30.974 22.662 32.108V32.108ZM25.848 22.1C25.992 20.912 26.1 19.724 26.1 18.5C26.1 17.276 25.992 16.088 25.848 14.9H31.932C32.22 16.052 32.4 17.258 32.4 18.5C32.4 19.742 32.22 20.948 31.932 22.1H25.848Z" fill="black"/>
</svg>
