<svg width="36" height="37" viewBox="0 0 36 37" fill="none" xmlns="http://www.w3.org/2000/svg">
<path d="M18 9.5C19.6569 9.5 21 8.15685 21 6.5C21 4.84315 19.6569 3.5 18 3.5C16.3431 3.5 15 4.84315 15 6.5C15 8.15685 16.3431 9.5 18 9.5Z" fill="black"/>
<path d="M28.5 20V17C26.19 17.03 23.865 15.875 22.395 14.255L20.46 12.11C20.205 11.825 19.89 11.6 19.545 11.435C19.53 11.435 19.53 11.42 19.515 11.42H19.5C18.975 11.12 18.375 10.97 17.715 11.03C16.14 11.165 15 12.56 15 14.135V23C15 24.65 16.35 26 18 26H25.5V33.5H28.5V25.25C28.5 23.6 27.15 22.25 25.5 22.25H21V17.075C22.935 18.68 25.875 19.985 28.5 20ZM19.245 27.5C18.63 29.24 16.965 30.5 15 30.5C12.51 30.5 10.5 28.49 10.5 26C10.5 24.035 11.76 22.385 13.5 21.755V18.65C10.08 19.34 7.5 22.37 7.5 26C7.5 30.14 10.86 33.5 15 33.5C18.63 33.5 21.66 30.92 22.35 27.5H19.245Z" fill="black"/>
</svg>
