<svg width="36" height="27" viewBox="0 0 36 27" fill="none" xmlns="http://www.w3.org/2000/svg">
<path fill-rule="evenodd" clip-rule="evenodd" d="M25.6416 15.3363C27.8835 16.8475 29.4544 18.895 29.4544 21.625V26.5H36V21.625C36 18.0825 30.158 15.9863 25.6416 15.3363Z" fill="black"/>
<path d="M13.0915 13.5C16.7065 13.5 19.637 10.5898 19.637 6.99999C19.637 3.41015 16.7065 0.5 13.0915 0.5C9.47645 0.5 6.5459 3.41015 6.5459 6.99999C6.5459 10.5898 9.47645 13.5 13.0915 13.5Z" fill="black"/>
<path fill-rule="evenodd" clip-rule="evenodd" d="M22.9083 13.5C26.5248 13.5 29.4539 10.5912 29.4539 6.99999C29.4539 3.40875 26.5248 0.5 22.9083 0.5C22.1392 0.5 21.4192 0.662499 20.7319 0.889999C22.0901 2.56375 22.9083 4.6925 22.9083 6.99999C22.9083 9.30749 22.0901 11.4362 20.7319 13.11C21.4192 13.3375 22.1392 13.5 22.9083 13.5Z" fill="black"/>
<path fill-rule="evenodd" clip-rule="evenodd" d="M13.0911 15.125C8.72197 15.125 0 17.3025 0 21.625V26.5H26.1823V21.625C26.1823 17.3025 17.4603 15.125 13.0911 15.125Z" fill="black"/>
</svg>
