<svg width="201" height="201" viewBox="0 0 201 201" fill="none" xmlns="http://www.w3.org/2000/svg">
<g filter="url(#filter0_f_132_60)">
<path d="M150.826 100.775C150.826 128.389 128.44 150.775 100.826 150.775C73.2119 150.775 50.8262 128.389 50.8262 100.775C50.8262 73.1609 73.2119 50.7751 100.826 50.7751C128.44 50.7751 150.826 73.1609 150.826 100.775Z" fill="#FBA816" fill-opacity="0.2"/>
</g>
<path d="M143.517 109.642L147.775 108.639L148.487 103.538L144.665 101.416L144.874 99.919L156.958 106.682L156.772 108.013L143.303 111.174L143.517 109.642ZM149.151 108.379L153.372 107.45C153.481 107.43 153.66 107.396 153.909 107.348C154.158 107.305 154.415 107.262 154.682 107.216C154.949 107.17 155.164 107.132 155.328 107.102C155.098 107.011 154.869 106.914 154.641 106.811C154.418 106.715 154.209 106.62 154.015 106.528C153.827 106.437 153.666 106.358 153.533 106.292L149.732 104.218L149.151 108.379Z" fill="black"/>
<path d="M138.99 122.156L139.708 120.493L148.036 117.656L142.049 115.071L142.641 113.699L154.438 118.793L153.846 120.165L148.133 117.698L151.564 125.45L150.884 127.023L147.409 119.329L138.99 122.156Z" fill="black"/>
<path d="M132.02 133.415L128.406 130.448L129.315 129.341L131.91 131.471L138.049 123.991L147.982 132.142L147.034 133.297L138.134 125.993L133.946 131.095L142.846 138.4L141.91 139.541L132.996 132.226L132.02 133.415Z" fill="black"/>
<path d="M136.539 144.793L135.365 145.552L131.332 139.316C131.18 139.079 131.015 138.819 130.839 138.536C130.666 138.257 130.498 137.982 130.336 137.71C130.174 137.438 130.03 137.189 129.905 136.962C129.775 136.74 129.677 136.566 129.61 136.442L129.551 136.48L129.394 149.413L128.014 150.305L121.037 139.515L122.21 138.756L126.195 144.919C126.364 145.18 126.537 145.458 126.715 145.755C126.896 146.057 127.071 146.348 127.239 146.63C127.403 146.915 127.547 147.171 127.672 147.397C127.801 147.628 127.901 147.804 127.972 147.925L128.038 147.882L128.174 134.9L129.561 134.003L136.539 144.793Z" fill="black"/>
<path d="M115.364 147.468L117.137 141.398L118.822 140.928L116.876 147.329C117.367 147.344 117.847 147.426 118.314 147.576C118.778 147.732 119.195 148.008 119.567 148.403C119.933 148.8 120.217 149.359 120.419 150.082C120.734 151.21 120.59 152.178 119.988 152.985C119.381 153.793 118.315 154.41 116.791 154.836L113.396 155.783L109.941 143.407L111.381 143.005L112.824 148.177L115.364 147.468ZM114.493 154.154L116.398 153.622C117.08 153.432 117.637 153.191 118.067 152.901C118.491 152.612 118.777 152.264 118.925 151.858C119.074 151.452 119.071 150.975 118.918 150.427C118.699 149.643 118.271 149.111 117.634 148.833C116.998 148.56 116.147 148.573 115.08 148.871L113.167 149.405L114.493 154.154Z" fill="black"/>
<path d="M91.3965 143.35L92.3505 147.619L97.4429 148.39L99.6087 144.593L101.103 144.819L94.2021 156.824L92.8725 156.623L89.867 143.119L91.3965 143.35ZM92.5952 148.999L93.4749 153.23C93.4939 153.339 93.526 153.519 93.5711 153.769C93.6105 154.017 93.6515 154.276 93.694 154.543C93.7365 154.81 93.772 155.026 93.8005 155.19C93.8944 154.961 93.9941 154.733 94.0995 154.506C94.1983 154.284 94.2949 154.077 94.3893 153.883C94.4829 153.696 94.5633 153.536 94.6307 153.404L96.749 149.627L92.5952 148.999Z" fill="black"/>
<path d="M78.8965 138.623L80.5479 139.366L83.2605 147.736L85.9347 141.788L87.2974 142.4L82.0283 154.12L80.6655 153.507L83.2172 147.832L75.415 151.146L73.8518 150.444L81.5972 147.084L78.8965 138.623Z" fill="black"/>
<path d="M67.7672 131.517L70.7858 127.946L71.8799 128.871L69.7123 131.435L77.1024 137.682L68.8068 147.495L67.6658 146.53L75.0988 137.737L70.0581 133.476L62.625 142.269L61.4974 141.316L68.9418 132.51L67.7672 131.517Z" fill="black"/>
<path d="M56.3298 135.906L55.5883 134.721L61.8833 130.78C62.1217 130.631 62.384 130.47 62.6702 130.298C62.9514 130.129 63.2292 129.965 63.5037 129.808C63.7781 129.65 64.0292 129.51 64.2571 129.388C64.4818 129.261 64.6569 129.165 64.7823 129.1L64.745 129.041L51.8154 128.694L50.9434 127.301L61.8349 120.483L62.5764 121.668L56.3559 125.562C56.0926 125.726 55.8114 125.896 55.5122 126.069C55.208 126.246 54.9137 126.416 54.6293 126.58C54.3419 126.739 54.0842 126.88 53.8564 127.002C53.6236 127.127 53.446 127.224 53.3237 127.294L53.3657 127.361L66.3446 127.687L67.2213 129.087L56.3298 135.906Z" fill="black"/>
<path d="M53.9832 114.826L60.033 116.668L60.4841 118.357L54.1053 116.339C54.0847 116.83 53.9971 117.308 53.8424 117.774C53.6806 118.236 53.4001 118.65 53.0009 119.018C52.6001 119.379 52.0374 119.657 51.3128 119.85C50.1806 120.153 49.2145 119.998 48.4145 119.387C47.6131 118.77 47.0084 117.697 46.6004 116.169L45.6914 112.763L58.1064 109.45L58.4917 110.893L53.3032 112.278L53.9832 114.826ZM47.3081 113.878L47.8181 115.789C48.0009 116.474 48.2351 117.033 48.5205 117.466C48.8044 117.894 49.1487 118.184 49.5534 118.337C49.958 118.49 50.4349 118.493 50.9841 118.346C51.771 118.136 52.3072 117.714 52.5928 117.08C52.8727 116.447 52.8698 115.596 52.5842 114.526L52.0719 112.607L47.3081 113.878Z" fill="black"/>
<path d="M58.3457 90.954L54.066 91.8589L53.2369 96.9421L57.0086 99.1513L56.7652 100.643L44.8405 93.6045L45.057 92.2773L58.5947 89.4273L58.3457 90.954ZM52.684 92.0876L48.4432 92.9187C48.3334 92.9364 48.1534 92.9664 47.9031 93.0087C47.6537 93.0452 47.3952 93.0832 47.1276 93.1227C46.8599 93.1621 46.6438 93.1951 46.4791 93.2217C46.7068 93.3182 46.9335 93.4205 47.1593 93.5286C47.3803 93.6299 47.5867 93.7289 47.7788 93.8255C47.965 93.9212 48.1238 94.0035 48.255 94.0724L52.0077 96.234L52.684 92.0876Z" fill="black"/>
<path d="M63.1831 78.5164L62.4223 80.1593L54.0226 82.7783L59.9404 85.5187L59.3125 86.8746L47.6525 81.4749L48.2804 80.1191L53.9269 82.734L50.6995 74.8952L51.4197 73.34L54.6926 81.1223L63.1831 78.5164Z" fill="black"/>
<path d="M70.3366 67.5104L73.8743 70.5678L72.9376 71.6517L70.3973 69.4564L64.0699 76.7778L54.3479 68.3756L55.3249 67.2452L64.0361 74.7738L68.3521 69.7798L59.6409 62.2512L60.6064 61.134L69.3309 68.6741L70.3366 67.5104Z" fill="black"/>
<path d="M66.0962 55.9499L67.2888 55.2215L71.1599 61.5596C71.3065 61.7996 71.4643 62.0636 71.6334 62.3517C71.7994 62.6348 71.9599 62.9144 72.1148 63.1905C72.2698 63.4667 72.4069 63.7193 72.5263 63.9485C72.6507 64.1746 72.7445 64.3508 72.8078 64.4769L72.8678 64.4402L73.3569 51.5153L74.7595 50.6586L81.4572 61.6247L80.2646 62.3531L76.4393 56.09C76.2774 55.8249 76.1114 55.5419 75.9412 55.2407C75.7679 54.9346 75.6008 54.6385 75.4398 54.3523C75.2838 54.0631 75.146 53.804 75.0267 53.5748C74.9042 53.3406 74.8089 53.162 74.7406 53.0389L74.6731 53.0801L74.204 66.0546L72.7939 66.9159L66.0962 55.9499Z" fill="black"/>
<path d="M87.3811 53.7511L85.4475 59.7722L83.751 60.1975L85.8656 53.8502C85.3753 53.8221 84.8985 53.7272 84.4351 53.5655C83.9759 53.3967 83.5658 53.1099 83.2045 52.7051C82.849 52.2989 82.58 51.7321 82.3976 51.0046C82.1126 49.8679 82.2818 48.9043 82.9051 48.1137C83.5341 47.3217 84.6159 46.7334 86.1505 46.3487L89.5691 45.4916L92.6939 57.9554L91.2447 58.3188L89.9387 53.1099L87.3811 53.7511ZM88.4297 47.0911L86.5115 47.572C85.8238 47.7444 85.2612 47.97 84.8237 48.2489C84.3919 48.5263 84.0965 48.8661 83.9376 49.2684C83.7787 49.6707 83.7684 50.1475 83.9066 50.6988C84.1047 51.4888 84.5186 52.0313 85.1483 52.3265C85.7767 52.616 86.6279 52.6261 87.7021 52.3568L89.6288 51.8737L88.4297 47.0911Z" fill="black"/>
<path d="M111.288 58.4474L110.448 54.1544L105.378 53.2476L103.112 56.985L101.624 56.7188L108.844 44.9032L110.168 45.14L112.81 58.7198L111.288 58.4474ZM110.241 52.7691L109.475 48.516C109.459 48.406 109.431 48.2255 109.393 47.9746C109.36 47.7247 109.326 47.4656 109.291 47.1974C109.256 46.9292 109.226 46.7126 109.202 46.5475C109.102 46.7737 108.996 46.9988 108.885 47.2229C108.78 47.4423 108.678 47.6473 108.578 47.8378C108.48 48.0225 108.395 48.18 108.324 48.3102L106.105 52.0294L110.241 52.7691Z" fill="black"/>
<path d="M123.656 63.4738L122.024 62.6886L119.531 54.2509L116.702 60.1273L115.356 59.4793L120.928 47.9009L122.275 48.5488L119.576 54.1559L127.462 51.0454L129.006 51.7886L121.176 54.9455L123.656 63.4738Z" fill="black"/>
<path d="M134.568 70.8074L131.46 74.3002L130.39 73.3478L132.622 70.8398L125.393 64.4065L133.936 54.8078L135.052 55.8011L127.398 64.4019L132.328 68.7901L139.983 60.1893L141.086 61.171L133.419 69.7849L134.568 70.8074Z" fill="black"/>
<path d="M146.201 66.7808L146.912 67.984L140.517 71.7614C140.275 71.9044 140.009 72.0584 139.718 72.2232C139.433 72.385 139.151 72.5414 138.873 72.6922C138.594 72.8431 138.34 72.9765 138.109 73.0925C137.881 73.2135 137.703 73.3048 137.576 73.3662L137.612 73.4267L150.528 74.1059L151.364 75.521L140.301 82.0566L139.59 80.8534L145.909 77.1207C146.176 76.9627 146.462 76.8009 146.765 76.6351C147.074 76.4664 147.372 76.3037 147.661 76.1468C147.952 75.9951 148.214 75.8612 148.444 75.7452C148.68 75.6262 148.86 75.5335 148.984 75.467L148.944 75.3989L135.978 74.739L135.138 73.3164L146.201 66.7808Z" fill="black"/>
<path d="M148.006 87.8909L142.007 85.8887L141.601 84.1874L147.924 86.3743C147.958 85.8844 148.058 85.4086 148.225 84.9471C148.399 84.4899 148.69 84.0831 149.099 83.7265C149.509 83.3756 150.079 83.1131 150.809 82.939C151.949 82.667 152.91 82.8472 153.694 83.4795C154.478 84.1175 155.054 85.2059 155.422 86.7447L156.24 90.1729L143.741 93.1554L143.394 91.702L148.618 90.4556L148.006 87.8909ZM154.653 89.0154L154.194 87.0918C154.03 86.4022 153.811 85.8371 153.537 85.3964C153.264 84.9614 152.928 84.6622 152.527 84.4987C152.127 84.3353 151.65 84.3195 151.097 84.4514C150.305 84.6405 149.758 85.0481 149.456 85.6745C149.159 86.2995 149.139 87.1505 149.396 88.2277L149.857 90.1598L154.653 89.0154Z" fill="black"/>
<defs>
<filter id="filter0_f_132_60" x="0.826172" y="0.775146" width="200" height="200" filterUnits="userSpaceOnUse" color-interpolation-filters="sRGB">
<feFlood flood-opacity="0" result="BackgroundImageFix"/>
<feBlend mode="normal" in="SourceGraphic" in2="BackgroundImageFix" result="shape"/>
<feGaussianBlur stdDeviation="25" result="effect1_foregroundBlur_132_60"/>
</filter>
</defs>
</svg>
